<svg xmlns="http://www.w3.org/2000/svg" aria-hidden="true" style="position:absolute;width:0;height:0;overflow:hidden">
    <defs>
        <symbol id="icon-ocean-nft" viewBox="0 0 39 32">
            <path d="m19.549 11.821-1.393-.822 1.392 1.963 1.394-1.963-1.393.822zm.02-3.398-1.393 2.312 1.393.824 1.393-.823-1.393-2.313z"/>
        </symbol>
        <symbol id="icon-burger" viewBox="0 0 35 32">
            <path d="M34.743 2.245c0-.595-.229-1.166-.636-1.587S33.147 0 32.571 0h-30.4C1.595 0 1.043.237.636.658S0 1.65 0 2.245s.229 1.166.636 1.587.96.658 1.535.658h30.4c.576 0 1.128-.237 1.536-.658s.636-.992.636-1.587zM34.743 29.186c0-.596-.229-1.167-.636-1.588s-.96-.658-1.536-.658h-30.4c-.576 0-1.128.237-1.535.658S0 28.59 0 29.186c0 .595.229 1.166.636 1.588s.96.657 1.535.657h30.4c.576 0 1.128-.236 1.536-.657s.636-.992.636-1.588zM32.571 13.47c.576 0 1.128.237 1.536.658s.636.992.636 1.587-.229 1.166-.636 1.588-.96.658-1.536.658H15.2c-.576 0-1.128-.237-1.535-.658s-.636-.992-.636-1.588c0-.595.229-1.166.636-1.587s.96-.658 1.535-.658h17.371z"/>
        </symbol>
        <symbol id="icon-cart" viewBox="0 0 33 32">
            <path stroke-linejoin="round" stroke-width="2.948" d="M6.264 7.861h22.02a3.183 3.183 0 0 1 3.034 2.195c.14.424.189.872.144 1.316l-.958 9.581a3.195 3.195 0 0 1-3.178 2.876H12.077a3.193 3.193 0 0 1-3.133-2.568l-2.679-13.4z"/>
            <path stroke-linecap="round" stroke-linejoin="round" stroke-width="2.948" d="M6.264 7.861 4.971 2.683a1.6 1.6 0 0 0-1.549-1.209H1.474M11.055 30.216h3.193M23.829 30.216h3.193"/>
        </symbol>
        <symbol id="icon-user" viewBox="0 0 32 32">
            <path d="M15.38 29.223c-7.645 0-13.842-6.197-13.842-13.842S7.735 1.539 15.38 1.539c7.645 0 13.842 6.197 13.842 13.842S23.025 29.223 15.38 29.223zm0 1.538c8.495 0 15.38-6.886 15.38-15.38S23.874.001 15.38.001C6.885.001 0 6.887 0 15.381s6.886 15.38 15.38 15.38z"/>
            <path d="M6.152 24.324c0-.794.594-1.466 1.384-1.554 5.933-.657 9.782-.597 15.702.015a1.531 1.531 0 0 1 .852 2.67c-6.987 6.09-10.979 6.006-17.446.006a1.552 1.552 0 0 1-.492-1.137v-.001z"/>
            <path d="M23.159 23.55c-5.873-.607-9.667-.664-15.539-.015a.79.79 0 0 0-.699.79c0 .22.091.428.246.573 3.205 2.973 5.634 4.316 8.008 4.325 2.382.009 4.942-1.324 8.41-4.346a.764.764 0 0 0-.026-1.159.754.754 0 0 0-.4-.166v-.001zM7.451 22.007c5.995-.664 9.9-.604 15.866.014a2.292 2.292 0 0 1 1.976 2.903 2.3 2.3 0 0 1-.699 1.112c-3.518 3.067-6.448 4.737-9.426 4.726-2.986-.011-5.787-1.709-9.048-4.736a2.316 2.316 0 0 1-.739-1.702 2.33 2.33 0 0 1 2.069-2.319v.001zM21.532 12.304a6.149 6.149 0 0 1-6.152 6.152 6.15 6.15 0 0 1-4.35-10.502 6.152 6.152 0 0 1 10.502 4.35z"/>
            <path d="M15.38 16.918a4.617 4.617 0 0 1-4.614-4.614A4.617 4.617 0 0 1 15.38 7.69a4.617 4.617 0 0 1 4.615 4.614 4.613 4.613 0 0 1-4.615 4.614zm0 1.538a6.149 6.149 0 0 0 6.152-6.152 6.15 6.15 0 0 0-10.502-4.35 6.152 6.152 0 0 0 4.35 10.502z"/>
        </symbol>
        <symbol id="icon-btn-arrow" viewBox="0 0 104 32">
            <path d="M86.226 26.531l11.055-11.055-11.055-11.055 2.211-4.422 15.476 15.476-15.476 15.476-2.211-4.422z"></path>
            <path stroke-linejoin="miter" stroke-linecap="butt" stroke-miterlimit="4" stroke-width="4.4218" d="M97.28 15.477h-97.28"></path>
        </symbol>
        <symbol id="icon-main-card" viewBox="0 0 20 32">
            <path d="M9.712 0l-9.712 16.117 9.712-4.414v-11.703z"></path>
            <path d="M9.712 11.702l-9.712 4.414 9.712 5.742v-10.157z"></path>
            <path d="M19.426 16.117l-9.714-16.117v11.703l9.714 4.414z"></path>
            <path d="M9.712 21.859l9.714-5.742-9.714-4.414v10.157z"></path>
            <path d="M0 17.96l9.712 13.688v-7.949l-9.712-5.739z"></path>
            <path d="M9.712 23.699v7.949l9.72-13.688-9.72 5.739z"></path>
        </symbol>
        <symbol id="icon-arrow-place-bid" viewBox="0 0 80 32">
            <path d="M60.965 25.289l10.537-10.537-10.537-10.537 2.108-4.215 14.752 14.752-14.752 14.752-2.108-4.215z"></path>
            <path stroke-linejoin="miter" stroke-linecap="butt" stroke-miterlimit="4" stroke-width="3.5375" d="M74.287 15.919l-74.287 0"></path>
        </symbol>
        <symbol id="icon-Binance" viewBox="0 0 158 32">
            <path d="M9.496 13.213l6.117-6.106 6.12 6.109 3.559-3.553-9.679-9.663-9.676 9.66 3.559 3.553z"></path>
            <path d="M6.982 15.722l-3.559-3.553-3.559 3.553 3.559 3.553 3.559-3.553z"></path>
            <path d="M9.496 18.231l6.117 6.106 6.12-6.109 3.561 3.551-0.002 0.002-9.679 9.663-9.681-9.665 3.564-3.549z"></path>
            <path d="M27.801 19.276l3.559-3.553-3.559-3.553-3.559 3.553 3.559 3.553z"></path>
            <path d="M19.222 15.72h0.001l-3.611-3.606-3.613 3.607 0.005 0.005 3.608 3.602 3.613-3.608-0.003-0.002z"></path>
            <path d="M36.909 7.619h7.741c1.921 0 3.374 0.492 4.359 1.477 0.762 0.762 1.143 1.707 1.143 2.835v0.048c0 0.476-0.059 0.897-0.178 1.262s-0.277 0.695-0.474 0.988c-0.197 0.294-0.427 0.552-0.687 0.774s-0.541 0.413-0.842 0.572c0.966 0.366 1.726 0.862 2.28 1.489s0.831 1.497 0.831 2.608v0.047c0 0.762-0.147 1.429-0.441 2.001s-0.715 1.048-1.263 1.429c-0.548 0.381-1.207 0.667-1.977 0.858s-1.624 0.286-2.56 0.286h-7.932v-16.674zM43.876 14.36c0.812 0 1.456-0.139 1.933-0.417s0.716-0.727 0.716-1.346v-0.048c0-0.556-0.207-0.98-0.62-1.274s-1.010-0.441-1.789-0.441h-3.627v3.525h3.388zM44.854 21.078c0.811 0 1.447-0.146 1.909-0.441s0.692-0.751 0.692-1.37v-0.047c0-0.556-0.215-0.996-0.644-1.322s-1.121-0.488-2.076-0.488h-4.247v3.668l4.367-0z"></path>
            <path d="M55.691 7.619h3.674v16.675h-3.674v-16.675z"></path>
            <path d="M64.932 7.619h3.388l7.826 10.267v-10.267h3.627v16.675h-3.125l-8.089-10.6v10.6h-3.627v-16.675z"></path>
            <path d="M90.897 7.5h3.388l7.158 16.794h-3.841l-1.527-3.74h-7.063l-1.527 3.74h-3.746l7.159-16.794zM94.762 17.314l-2.219-5.407-2.218 5.407h4.437z"></path>
            <path d="M105.41 7.619h3.388l7.826 10.267v-10.267h3.627v16.675h-3.125l-8.089-10.6v10.6h-3.627v-16.675z"></path>
            <path d="M133.475 24.579c-1.225 0-2.363-0.223-3.412-0.667s-1.957-1.052-2.72-1.822c-0.764-0.77-1.361-1.679-1.79-2.727s-0.644-2.168-0.644-3.359v-0.047c0-1.191 0.215-2.306 0.644-3.347s1.026-1.953 1.79-2.739c0.763-0.786 1.678-1.406 2.743-1.858s2.244-0.679 3.532-0.679c0.779 0 1.49 0.064 2.135 0.19s1.228 0.302 1.754 0.524c0.525 0.223 1.010 0.492 1.455 0.81 0.444 0.318 0.859 0.667 1.24 1.048l-2.338 2.692c-0.653-0.587-1.317-1.048-1.992-1.382-0.677-0.333-1.436-0.5-2.279-0.5-0.7 0-1.348 0.135-1.944 0.405s-1.109 0.643-1.539 1.119c-0.429 0.476-0.763 1.028-1.003 1.656-0.238 0.628-0.357 1.298-0.357 2.013v0.047c0 0.714 0.119 1.39 0.357 2.025 0.239 0.636 0.569 1.191 0.991 1.667s0.93 0.854 1.527 1.132c0.597 0.278 1.253 0.417 1.969 0.417 0.955 0 1.761-0.175 2.422-0.524s1.317-0.826 1.969-1.429l2.338 2.358c-0.43 0.461-0.876 0.874-1.336 1.239-0.462 0.366-0.967 0.679-1.515 0.941s-1.15 0.461-1.801 0.595c-0.653 0.135-1.384 0.203-2.195 0.203z"></path>
            <path d="M144.647 7.619h12.574v3.264h-8.947v3.383h7.874v3.263h-7.874v3.502h9.067v3.263h-12.695v-16.675z"></path>
        </symbol>
        <symbol id="icon-bitmex" viewBox="0 0 197 32">
            <path d="M16.732 0.588h18.387c-0.011 0.239-0.095 0.469-0.241 0.66-0.622 1.048-1.183 2.138-1.794 3.186-0.865 1.504-1.674 3.036-2.554 4.534-0.557 1.078-1.186 2.123-1.78 3.183-3.573 0-7.146 0-10.719 0-0.187 0-0.372 0.009-0.559 0.020-0.156 0.403-0.414 0.756-0.622 1.135-0.272 0.434-0.493 0.896-0.763 1.33-0.285 0.583-0.678 1.106-0.965 1.688-0.591 0.985-1.144 1.985-1.723 2.981-0.604 1.018-1.194 2.050-1.771 3.097-0.244 0.371-0.469 0.754-0.674 1.147-1.209 2.065-2.379 4.148-3.59 6.211-0.103 0.222-0.238 0.428-0.402 0.611-2.070-0.014-4.139 0-6.209 0-0.255 0.005-0.508 0.040-0.755 0.104 0-0.562 0.383-1.012 0.641-1.484 0.311-0.634 0.727-1.222 1.040-1.857 2.481-4.355 4.935-8.726 7.407-13.085 0.56-0.947 1.041-1.913 1.604-2.842 0.703-1.222 1.358-2.471 2.091-3.679 0.233-0.505 0.548-0.968 0.805-1.461 0.912-1.593 1.807-3.195 2.715-4.788 0.108-0.249 0.252-0.481 0.428-0.689z"></path>
            <path d="M38.038 7c1.225-2.1 2.407-4.223 3.649-6.313h6.642c0.097 0.005 0.193 0.020 0.286 0.044-0.221 0.328-0.406 0.677-0.601 1.019-1.602 2.821-3.199 5.644-4.791 8.468-0.669 1.15-1.292 2.326-1.97 3.47l-0.067 0.023-0.012 0.143c-3.123 5.498-6.235 11-9.337 16.506-6.097 0.006-12.194 0.006-18.293 0 0.347-0.712 0.758-1.391 1.144-2.083 1.737-3.134 3.518-6.24 5.23-9.374 3.746-0.006 7.492-0.006 11.239 0 2.314-3.955 4.578-7.941 6.875-11.903h0.006z"></path>
            <path d="M106.582 0.606v30.115h5.318v-21.177l9.699 13.948 9.622-14.279v21.508h5.473v-30.115h-5.887l-9.169 13.902-9.272-13.902h-5.784z"></path>
            <path d="M81.71 8.374h3.475v22.602h-3.475v-22.602z"></path>
            <path d="M81.411 0h4.073v3.792h-4.073v-3.792z"></path>
            <path d="M91.825 1.897h3.63v6.477h7.158v3.157h-7.158v13.427c-0.006 0.517 0.116 1.028 0.356 1.489 0.615 1.145 2.284 2.505 6.802 0.916v2.926c0 0-4.124 2.291-7.859 0.205 0 0-1.855-0.773-2.635-3.381-0.203-0.699-0.302-1.422-0.296-2.149v-13.483l-3.061 0.050v-3.157h3.086l-0.025-6.477z"></path>
            <path d="M142.296 0.606v30.319h23.082v-4.887h-17.454v-8.044h15.38v-4.811h-15.406v-7.66h17.3v-4.917h-22.902z"></path>
            <path d="M167.544 0.606h6.575l7.547 10.644 7.488-10.644h6.575l-10.737 14.786 11.406 15.507h-6.925l-7.78-11.325-8.158 11.351h-6.574l11.243-15.398-10.66-14.92z"></path>
            <path d="M71.076 15.195c0 0 5.084-1.883 4.773-7.304 0 0-0.042-5.214-6.024-6.823-0.995-0.262-2.020-0.391-3.050-0.385h-14.346l0.039 30.115h15.445c0 0 9.038-0.191 9.674-8.094 0 0 0.647-5.524-6.511-7.509zM56.136 3.792h9.156c7.183-0.024 6.976 4.939 6.976 4.939 0.107 5.663-6.484 5.548-6.484 5.548h-9.648v-10.487zM67.341 27.615h-11.204v-10.485h10.713c7.183-0.026 6.976 4.937 6.976 4.937 0.107 5.663-6.484 5.548-6.484 5.548z"></path>
        </symbol>
        <symbol id="icon-Blockchain" viewBox="0 0 207 32">
            <path d="M55.623 21.298v-5.059c0-2.618-2.115-4.736-4.759-4.736h-0.206c-1.028 0-2.056 0.353-2.556 0.971v-6.001c0-0.736-0.558-1.118-1.116-1.118s-1.116 0.382-1.116 1.118v18.502c0 0.706 0.558 1.059 1.116 1.059 0.499 0 0.999-0.294 1.087-0.882 0.411 0.411 1.263 0.882 2.526 0.882h0.264c2.615 0 4.759-2.118 4.759-4.736zM53.39 21.298c0 1.383-1.116 2.501-2.526 2.501h-0.264c-1.322 0-2.497-0.883-2.497-2.324v-5.471c0-1.353 1.175-2.265 2.497-2.265h0.264c1.41 0 2.526 1.118 2.526 2.5v5.059zM64.994 24.915c0-0.559-0.353-1.117-1.116-1.117-0.911-0.030-1.615-0.736-1.615-1.648v-15.678c0-0.736-0.558-1.118-1.116-1.118s-1.116 0.382-1.116 1.118v15.678c0 2.147 1.704 3.883 3.848 3.883 0.764 0 1.116-0.559 1.116-1.118zM77.801 21.298v-5.059c0-2.618-2.115-4.736-4.729-4.736h-0.294c-2.615 0-4.729 2.118-4.729 4.736v5.059c0 2.618 2.115 4.736 4.729 4.736h0.294c2.615 0 4.729-2.118 4.729-4.736zM75.569 21.298c0 1.383-1.116 2.501-2.497 2.501h-0.264c-1.41 0-2.526-1.118-2.526-2.501v-5.059c0-1.382 1.116-2.5 2.497-2.5h0.294c1.381 0 2.497 1.118 2.497 2.5v5.059zM91.342 21.298c0-0.765-0.558-1.147-1.116-1.147-0.529 0-1.087 0.382-1.116 1.147-0.059 1.383-1.116 2.501-2.497 2.501h-0.265c-1.41 0-2.526-1.118-2.526-2.501v-5.059c0-1.382 1.116-2.5 2.497-2.5h0.293c1.381 0 2.439 1.029 2.497 2.53 0.029 0.736 0.588 1.089 1.116 1.089 0.558 0 1.116-0.383 1.116-1.118 0-2.618-2.144-4.736-4.729-4.736h-0.293c-2.585 0-4.729 2.088-4.729 4.736v5.059c0 2.618 2.115 4.736 4.729 4.736h0.293c2.615 0 4.729-2.118 4.729-4.736zM105.413 24.915c0-0.176-0.029-0.382-0.146-0.559l-4.025-7.060 3.643-3.883c0.235-0.235 0.323-0.5 0.323-0.765 0-0.589-0.5-1.147-1.145-1.147-0.265 0-0.558 0.117-0.793 0.382l-5.582 5.942v-11.354c0-0.736-0.558-1.118-1.116-1.118s-1.116 0.382-1.116 1.118v18.443c0 0.736 0.558 1.118 1.116 1.118s1.116-0.382 1.116-1.118v-3.795l1.968-2.118 3.672 6.442c0.235 0.412 0.587 0.589 0.94 0.589 0.676 0 1.145-0.53 1.145-1.118zM118.103 21.298c0-0.765-0.558-1.147-1.116-1.147-0.528 0-1.087 0.382-1.116 1.147-0.059 1.383-1.116 2.501-2.496 2.501h-0.265c-1.41 0-2.526-1.118-2.526-2.501v-5.059c0-1.382 1.116-2.5 2.497-2.5h0.294c1.38 0 2.437 1.029 2.496 2.53 0.030 0.736 0.588 1.089 1.116 1.089 0.558 0 1.116-0.383 1.116-1.118 0-2.618-2.144-4.736-4.729-4.736h-0.294c-2.585 0-4.729 2.088-4.729 4.736v5.059c0 2.618 2.115 4.736 4.729 4.736h0.294c2.614 0 4.729-2.118 4.729-4.736zM131.968 24.915v-8.677c0-2.618-2.116-4.736-4.73-4.736h-0.235c-1.028 0-2.057 0.353-2.556 0.882v-5.912c0-0.736-0.558-1.118-1.115-1.118s-1.116 0.382-1.116 1.118v18.443c0 0.736 0.558 1.118 1.116 1.118s1.115-0.382 1.115-1.118v-8.824c0-1.53 1.323-2.353 2.674-2.353 1.292 0 2.613 0.794 2.613 2.5v8.677c0 0.736 0.558 1.118 1.116 1.118s1.117-0.382 1.117-1.118zM146.655 24.887c0-0.471-0.294-0.942-0.94-1.059-0.529-0.088-0.764-0.442-0.764-0.971v-6.825c0-2.53-1.997-4.53-4.612-4.53h-0.206c-1.557 0-3.437 0.618-4.377 2.736-0.088 0.176-0.117 0.353-0.117 0.529 0 0.618 0.558 1.029 1.116 1.029 0.382 0 0.764-0.176 0.999-0.588 0.558-0.971 1.175-1.471 2.38-1.471h0.206c1.292 0 2.379 0.647 2.379 2.382 0 0.147 0 0.383-0.088 0.5-0.705 1-7.227 0.176-7.432 4.824v0.353c0 2.736 2.35 4.236 4.729 4.236h0.264c1.204 0 2.321-0.441 3.173-1.176 0.382 0.559 0.999 1 1.998 1.147 0.059 0.029 0.146 0.029 0.206 0.029 0.705 0 1.086-0.559 1.086-1.146zM142.718 21.298c0 1.383-1.145 2.501-2.526 2.501h-0.264c-1.498 0-2.497-0.794-2.497-2.059v-0.236c0.088-2.059 3.114-1.941 5.287-2.529v2.324zM152.412 24.915v-12.295c0-0.736-0.559-1.118-1.116-1.118s-1.116 0.382-1.116 1.118v12.295c0 0.736 0.558 1.118 1.116 1.118s1.116-0.382 1.116-1.118zM166.865 24.915v-8.677c0-3.236-2.203-4.736-4.7-4.736h-0.264c-1.029 0-1.998 0.353-2.527 0.882-0.117-0.589-0.617-0.882-1.116-0.882-0.588 0-1.146 0.412-1.146 1.118v12.295c0 0.736 0.558 1.118 1.116 1.118s1.116-0.382 1.116-1.118v-8.677c0-1.382 1.145-2.5 2.526-2.5h0.265c1.41 0 2.526 1.118 2.526 2.5v8.677c0 0.736 0.558 1.118 1.116 1.118s1.087-0.382 1.087-1.118zM178.392 24.915v-12.295c0-0.736-0.558-1.118-1.116-1.118s-1.115 0.382-1.115 1.118v12.295c0 0.736 0.558 1.118 1.115 1.118 0.559 0 1.116-0.382 1.116-1.118zM192.521 21.298v-5.059c0-2.618-2.115-4.736-4.729-4.736h-0.294c-2.615 0-4.729 2.118-4.729 4.736v5.059c0 2.618 2.115 4.736 4.729 4.736h0.294c2.614 0 4.729-2.118 4.729-4.736zM190.289 21.298c0 1.383-1.116 2.501-2.497 2.501h-0.265c-1.41 0-2.526-1.118-2.526-2.501v-5.059c0-1.382 1.116-2.5 2.497-2.5h0.294c1.381 0 2.497 1.118 2.497 2.5v5.059z"></path>
            <path d="M23.75 14.976c-0.68 0-1.233 0.554-1.233 1.235s0.553 1.235 1.233 1.235c0.68 0 1.234-0.554 1.234-1.235s-0.553-1.235-1.234-1.235z"></path>
            <path d="M29.453 11.549c-0.68 0-1.233 0.554-1.233 1.235s0.553 1.235 1.233 1.235c0.68 0 1.234-0.554 1.234-1.235s-0.554-1.235-1.234-1.235z"></path>
            <path d="M35.156 8.123c-0.68 0-1.233 0.554-1.233 1.235s0.553 1.236 1.233 1.236c0.68 0 1.233-0.554 1.233-1.236s-0.553-1.235-1.233-1.235z"></path>
            <path d="M18.047 4.697c-0.68 0-1.233 0.554-1.233 1.235s0.553 1.235 1.233 1.235c0.68 0 1.234-0.554 1.234-1.235s-0.553-1.235-1.234-1.235z"></path>
            <path d="M23.75 1.27c-0.68 0-1.233 0.554-1.233 1.235s0.553 1.235 1.233 1.235c0.68 0 1.234-0.554 1.234-1.235s-0.553-1.235-1.234-1.235z"></path>
            <path d="M23.75 8.123c-0.68 0-1.233 0.554-1.233 1.235s0.553 1.236 1.233 1.236 1.234-0.554 1.234-1.236c0-0.681-0.553-1.235-1.234-1.235z"></path>
            <path d="M29.453 4.697c-0.68 0-1.233 0.554-1.233 1.235s0.553 1.235 1.233 1.235c0.68 0 1.234-0.554 1.234-1.235s-0.554-1.235-1.234-1.235z"></path>
            <path d="M29.453 18.403c-0.68 0-1.233 0.554-1.233 1.235s0.553 1.235 1.233 1.235c0.68 0 1.234-0.554 1.234-1.235s-0.554-1.235-1.234-1.235z"></path>
            <path d="M35.156 14.976c-0.68 0-1.233 0.554-1.233 1.235s0.553 1.235 1.233 1.235c0.68 0 1.233-0.554 1.233-1.235s-0.553-1.235-1.233-1.235z"></path>
            <path d="M29.453 25.255c-0.68 0-1.233 0.554-1.233 1.235s0.553 1.235 1.233 1.235c0.68 0 1.234-0.554 1.234-1.235s-0.554-1.235-1.234-1.235z"></path>
            <path d="M35.156 21.829c-0.68 0-1.233 0.554-1.233 1.235s0.553 1.235 1.233 1.235c0.68 0 1.233-0.554 1.233-1.235s-0.553-1.235-1.233-1.235z"></path>
            <path d="M23.75 28.682c-0.68 0-1.233 0.554-1.233 1.235s0.553 1.235 1.233 1.235 1.234-0.554 1.234-1.235c0-0.681-0.553-1.235-1.234-1.235z"></path>
            <path d="M23.75 21.829c-0.68 0-1.233 0.554-1.233 1.235s0.553 1.235 1.233 1.235 1.234-0.554 1.234-1.235c0-0.681-0.553-1.235-1.234-1.235z"></path>
            <path d="M18.047 11.549c-0.68 0-1.233 0.554-1.233 1.235s0.553 1.235 1.233 1.235c0.68 0 1.234-0.554 1.234-1.235s-0.553-1.235-1.234-1.235z"></path>
            <path d="M18.047 25.255c-0.68 0-1.233 0.554-1.233 1.235s0.553 1.235 1.233 1.235c0.68 0 1.234-0.554 1.234-1.235s-0.553-1.235-1.234-1.235z"></path>
            <path d="M18.047 18.403c-0.68 0-1.233 0.554-1.233 1.235s0.553 1.235 1.233 1.235c0.68 0 1.234-0.554 1.234-1.235s-0.553-1.235-1.234-1.235z"></path>
            <path d="M12.344 8.123c-0.68 0-1.233 0.554-1.233 1.235s0.553 1.236 1.233 1.236 1.234-0.554 1.234-1.236c0-0.681-0.554-1.235-1.234-1.235z"></path>
            <path d="M12.344 21.829c-0.68 0-1.233 0.554-1.233 1.235s0.553 1.235 1.233 1.235 1.234-0.554 1.234-1.235c0-0.681-0.554-1.235-1.234-1.235z"></path>
            <path d="M12.344 14.976c-0.68 0-1.233 0.554-1.233 1.235s0.553 1.235 1.233 1.235c0.68 0 1.234-0.554 1.234-1.235s-0.554-1.235-1.234-1.235z"></path>
            <path d="M151.278 5.293c-0.619 0-1.122 0.504-1.122 1.123s0.504 1.124 1.122 1.124 1.122-0.504 1.122-1.124c0-0.62-0.503-1.123-1.122-1.123z"></path>
            <path d="M177.266 5.293c-0.619 0-1.122 0.504-1.122 1.123s0.504 1.124 1.122 1.124c0.619 0 1.122-0.504 1.122-1.124s-0.503-1.123-1.122-1.123z"></path>
            <path d="M171.379 23.878c-0.616 0-1.116 0.501-1.116 1.117s0.501 1.118 1.116 1.118c0.616 0 1.116-0.502 1.116-1.118s-0.5-1.117-1.116-1.117z"></path>
        </symbol>
        <symbol id="icon-Ethereum" viewBox="0 0 101 32">
            <path d="M33.587 15.189c-0.123-1.409-1.208-2.695-2.702-2.695s-2.559 1.286-2.702 2.695h5.404zM34.2 15.469c-0.001 0.078-0.032 0.152-0.088 0.207s-0.13 0.085-0.209 0.085h-5.721c0.143 1.409 1.207 2.695 2.702 2.695 1.023 0 1.781-0.388 2.354-1.205 0.083-0.111 0.205-0.184 0.364-0.117 0.036 0.016 0.069 0.040 0.096 0.070s0.046 0.065 0.058 0.103c0.012 0.038 0.016 0.078 0.011 0.118s-0.018 0.078-0.039 0.112c-0.572 1.001-1.719 1.49-2.845 1.49-1.924 0-3.296-1.714-3.296-3.552s1.372-3.553 3.296-3.553c1.922 0 3.313 1.711 3.317 3.546h-0.001zM41.14 12.065c0.164 0 0.287 0.143 0.287 0.286 0 0.164-0.123 0.286-0.287 0.286h-1.535v6.003c-0.002 0.075-0.032 0.147-0.086 0.2s-0.125 0.084-0.201 0.085c-0.076-0.001-0.148-0.032-0.201-0.085s-0.084-0.125-0.086-0.2v-6.003h-1.473c-0.038 0.001-0.076-0.006-0.111-0.020s-0.067-0.035-0.094-0.062c-0.027-0.027-0.048-0.059-0.062-0.094s-0.021-0.073-0.020-0.11c0-0.143 0.123-0.286 0.287-0.286h1.473v-2.197c0-0.138 0.095-0.267 0.231-0.289 0.19-0.031 0.342 0.1 0.342 0.281v2.205h1.535zM50.494 14.964v3.635c0 0.163-0.143 0.285-0.287 0.285-0.038 0.001-0.075-0.006-0.111-0.020s-0.067-0.035-0.094-0.062c-0.027-0.027-0.048-0.058-0.062-0.093s-0.021-0.073-0.020-0.11v-3.634c0-1.225-0.696-2.45-2.068-2.45-1.76 0-2.518 1.531-2.415 3.104 0 0.041 0.020 0.225 0.020 0.245v2.728c0 0.138-0.095 0.267-0.231 0.289-0.191 0.031-0.342-0.101-0.342-0.282v-11.944c0-0.143 0.123-0.285 0.286-0.285s0.287 0.143 0.287 0.285v6.758c0.492-0.878 1.371-1.47 2.395-1.47 1.678 0 2.641 1.47 2.641 3.022zM60.135 15.189c-0.123-1.409-1.208-2.695-2.702-2.695s-2.559 1.286-2.702 2.695h5.404zM60.749 15.469c-0.001 0.078-0.033 0.152-0.088 0.207s-0.131 0.085-0.209 0.085h-5.722c0.143 1.409 1.207 2.695 2.702 2.695 1.024 0 1.781-0.388 2.354-1.205 0.084-0.111 0.205-0.184 0.364-0.117 0.037 0.016 0.069 0.040 0.096 0.070s0.046 0.065 0.058 0.103c0.012 0.038 0.016 0.078 0.011 0.118s-0.018 0.078-0.039 0.112c-0.572 1.001-1.719 1.49-2.845 1.49-1.924 0-3.295-1.714-3.295-3.552s1.371-3.553 3.295-3.553c1.922 0 3.313 1.711 3.317 3.546h-0.001zM67.77 12.331c0 0.184-0.102 0.286-0.266 0.306-1.678 0.245-2.436 1.613-2.436 3.205v2.729c0 0.138-0.094 0.266-0.231 0.289-0.191 0.031-0.343-0.101-0.343-0.282v-6.22c0-0.138 0.095-0.266 0.231-0.289 0.191-0.031 0.343 0.101 0.343 0.282v1.266c0.471-0.797 1.413-1.551 2.395-1.551 0.143 0 0.307 0.102 0.307 0.265zM76.552 15.189c-0.123-1.409-1.208-2.695-2.702-2.695s-2.559 1.286-2.702 2.695h5.404zM77.166 15.469c-0.001 0.078-0.033 0.152-0.088 0.207s-0.13 0.085-0.209 0.085h-5.721c0.143 1.409 1.208 2.695 2.702 2.695 1.023 0 1.78-0.388 2.354-1.205 0.084-0.111 0.205-0.184 0.365-0.117 0.041 0.018 0.079 0.046 0.107 0.082s0.047 0.078 0.055 0.123c0.013 0.068 0 0.138-0.036 0.197-0.573 1-1.719 1.491-2.844 1.491-1.925 0-3.295-1.715-3.295-3.553 0-1.837 1.371-3.552 3.295-3.552 1.922 0 3.313 1.711 3.316 3.546h-0.001zM86.397 12.403v6.237c0 0.163-0.143 0.285-0.286 0.285-0.038 0.001-0.075-0.006-0.111-0.020s-0.067-0.035-0.094-0.062c-0.027-0.027-0.048-0.059-0.062-0.094s-0.021-0.073-0.020-0.11v-1.184c-0.471 0.939-1.31 1.613-2.375 1.613-1.698 0-2.64-1.47-2.64-3.022v-3.654c0-0.143 0.123-0.287 0.286-0.287s0.287 0.143 0.287 0.286v3.654c0 1.225 0.696 2.45 2.067 2.45 1.924 0 2.375-1.797 2.375-3.778v-2.327c0.001-0.044 0.011-0.088 0.032-0.128s0.049-0.074 0.085-0.1c0.036-0.027 0.077-0.044 0.121-0.052s0.089-0.006 0.132 0.006c0.060 0.019 0.113 0.057 0.149 0.109s0.056 0.113 0.055 0.176zM100.869 14.944v3.654c0 0.164-0.143 0.286-0.286 0.286-0.038 0.001-0.075-0.006-0.111-0.020s-0.067-0.035-0.094-0.062c-0.027-0.027-0.048-0.059-0.062-0.094s-0.021-0.073-0.020-0.11v-3.654c0-1.225-0.695-2.429-2.068-2.429-1.719 0-2.374 1.837-2.374 3.266v2.817c0 0.163-0.143 0.285-0.287 0.285-0.038 0.001-0.075-0.006-0.111-0.020s-0.067-0.035-0.094-0.062c-0.027-0.027-0.048-0.059-0.062-0.094s-0.021-0.073-0.020-0.11v-3.654c0-1.225-0.696-2.429-2.068-2.429-1.74 0-2.456 1.368-2.395 3.185 0 0.041 0.021 0.123 0 0.143v2.749c0 0.138-0.094 0.265-0.231 0.288-0.191 0.031-0.343-0.101-0.343-0.281v-6.24c0-0.138 0.095-0.267 0.231-0.289 0.191-0.031 0.342 0.101 0.342 0.282v1.041c0.492-0.877 1.372-1.449 2.396-1.449 1.166 0 2.067 0.735 2.435 1.817 0.471-1.062 1.392-1.817 2.579-1.817 1.679 0 2.641 1.45 2.641 3.002z"></path>
            <path d="M0.206 16.077l9.559 5.636v-21.456l-9.559 15.82z"></path>
            <path d="M9.766 0.258v21.456l9.559-5.636-9.559-15.82z"></path>
            <path d="M9.765 11.744l-9.559 4.333 9.559 5.636 9.559-5.635-9.559-4.334z"></path>
            <path d="M9.765 11.744l-9.559 4.333 9.559 5.636 0.001-9.969z"></path>
            <path d="M0.206 17.885l9.559 13.436v-7.803l-9.559-5.633z"></path>
            <path d="M9.766 23.518v7.803l9.565-13.436-9.565 5.633z"></path>
        </symbol>
        <symbol id="icon-footer-arrow" viewBox="0 0 60 32">
            <path d="M60 5.31c0.002 0.683-0.139 1.358-0.414 1.975s-0.675 1.161-1.172 1.591l-25.712 22.084c-0.767 0.672-1.729 1.040-2.721 1.040s-1.954-0.368-2.721-1.040l-25.712-22.861c-0.875-0.776-1.425-1.891-1.53-3.1s0.245-2.413 0.973-3.347c0.727-0.934 1.773-1.521 2.906-1.632s2.261 0.262 3.137 1.038l22.969 20.438 22.969-19.752c0.629-0.559 1.395-0.914 2.208-1.023s1.637 0.032 2.376 0.407 1.362 0.968 1.796 1.71c0.433 0.741 0.658 1.599 0.649 2.473z"></path>
        </symbol>
        <symbol id="icon-instagram" viewBox="0 0 32 32">
            <path d="M0 15.722c0-8.683 7.039-15.722 15.722-15.722s15.722 7.039 15.722 15.722c0 8.683-7.039 15.722-15.722 15.722s-15.722-7.039-15.722-15.722z"></path>
            <path d="M15.723 7.337c-2.277 0-2.563 0.010-3.458 0.051-0.893 0.041-1.502 0.182-2.035 0.39-0.552 0.214-1.019 0.501-1.485 0.967s-0.753 0.934-0.968 1.485c-0.208 0.533-0.349 1.143-0.39 2.035-0.040 0.894-0.051 1.18-0.051 3.458s0.010 2.562 0.051 3.457c0.041 0.893 0.182 1.502 0.39 2.035 0.214 0.551 0.501 1.019 0.967 1.485s0.934 0.754 1.485 0.968c0.534 0.207 1.143 0.349 2.036 0.39 0.894 0.041 1.18 0.051 3.457 0.051s2.562-0.010 3.457-0.051c0.893-0.041 1.503-0.182 2.036-0.39 0.551-0.214 1.018-0.501 1.484-0.968s0.753-0.934 0.968-1.485c0.206-0.533 0.348-1.143 0.39-2.035 0.040-0.894 0.051-1.18 0.051-3.457s-0.010-2.563-0.051-3.458c-0.042-0.893-0.183-1.502-0.39-2.035-0.215-0.552-0.501-1.019-0.968-1.485s-0.933-0.753-1.485-0.967c-0.535-0.207-1.144-0.349-2.037-0.39-0.894-0.041-1.179-0.051-3.457-0.051h0.003zM14.971 8.848c0.223-0 0.472 0 0.752 0 2.239 0 2.504 0.008 3.388 0.048 0.818 0.037 1.261 0.174 1.557 0.289 0.391 0.152 0.67 0.334 0.964 0.627s0.475 0.573 0.628 0.964c0.115 0.295 0.252 0.739 0.289 1.556 0.040 0.884 0.049 1.149 0.049 3.387s-0.009 2.503-0.049 3.387c-0.037 0.818-0.174 1.261-0.289 1.556-0.152 0.391-0.334 0.67-0.628 0.963s-0.572 0.475-0.964 0.627c-0.295 0.115-0.739 0.252-1.557 0.289-0.884 0.040-1.149 0.049-3.388 0.049s-2.504-0.009-3.388-0.049c-0.818-0.038-1.261-0.174-1.557-0.289-0.391-0.152-0.671-0.334-0.964-0.627s-0.475-0.572-0.627-0.964c-0.115-0.295-0.252-0.739-0.289-1.556-0.040-0.884-0.048-1.149-0.048-3.389s0.008-2.503 0.048-3.387c0.037-0.818 0.174-1.261 0.289-1.557 0.152-0.391 0.334-0.671 0.627-0.964s0.573-0.475 0.964-0.627c0.296-0.115 0.739-0.252 1.557-0.289 0.774-0.035 1.073-0.045 2.636-0.047v0.002zM20.199 10.24c-0.555 0-1.006 0.45-1.006 1.006s0.451 1.006 1.006 1.006 1.006-0.451 1.006-1.006c0-0.556-0.451-1.006-1.006-1.006zM15.723 11.416c-2.378 0-4.306 1.928-4.306 4.306s1.928 4.305 4.306 4.305c2.378 0 4.305-1.927 4.305-4.305s-1.927-4.306-4.305-4.306zM15.723 12.927c1.544 0 2.795 1.251 2.795 2.795s-1.252 2.795-2.795 2.795c-1.544 0-2.795-1.251-2.795-2.795s1.251-2.795 2.795-2.795z"></path>
        </symbol>
        <symbol id="icon-dribbble" viewBox="0 0 32 32">
            <path d="M0 15.722c0-8.683 7.039-15.722 15.722-15.722s15.722 7.039 15.722 15.722c0 8.683-7.039 15.722-15.722 15.722s-15.722-7.039-15.722-15.722z"></path>
            <path d="M24.107 15.711c0 0.567-0.058 1.133-0.171 1.685-0.11 0.539-0.274 1.068-0.489 1.574-0.21 0.497-0.47 0.976-0.773 1.422-0.299 0.444-0.644 0.86-1.023 1.239-0.38 0.378-0.797 0.722-1.241 1.022-0.448 0.302-0.927 0.561-1.424 0.772-0.507 0.213-1.037 0.377-1.575 0.487-0.553 0.114-1.121 0.172-1.689 0.172s-1.137-0.058-1.689-0.172c-0.539-0.11-1.069-0.274-1.575-0.487-0.497-0.211-0.977-0.47-1.425-0.772-0.443-0.301-0.861-0.644-1.24-1.022-0.379-0.38-0.724-0.796-1.024-1.239-0.302-0.446-0.563-0.925-0.773-1.422-0.215-0.506-0.379-1.035-0.49-1.574-0.112-0.552-0.17-1.118-0.17-1.685s0.057-1.135 0.17-1.686c0.111-0.539 0.275-1.069 0.49-1.574 0.21-0.497 0.471-0.976 0.773-1.423 0.3-0.444 0.645-0.859 1.024-1.239 0.379-0.378 0.796-0.721 1.24-1.021 0.448-0.303 0.928-0.563 1.425-0.774 0.506-0.214 1.036-0.378 1.576-0.487 0.552-0.113 1.12-0.17 1.689-0.17s1.136 0.057 1.689 0.17c0.538 0.11 1.069 0.274 1.575 0.487 0.497 0.211 0.977 0.471 1.424 0.774 0.443 0.3 0.861 0.643 1.241 1.021 0.379 0.38 0.724 0.795 1.023 1.239 0.304 0.447 0.564 0.926 0.773 1.423 0.215 0.505 0.378 1.035 0.489 1.574 0.113 0.551 0.171 1.118 0.171 1.686zM12.666 9.243c-1.997 0.942-3.487 2.779-3.952 4.993 0.189 0.002 3.173 0.039 6.611-0.873-1.239-2.199-2.564-3.993-2.659-4.121zM15.919 14.464c-3.687 1.102-7.225 1.023-7.352 1.018-0.002 0.077-0.006 0.151-0.006 0.228 0 1.837 0.694 3.512 1.835 4.778-0.002-0.004 1.957-3.475 5.822-4.723 0.093-0.031 0.188-0.059 0.282-0.086-0.18-0.406-0.376-0.814-0.581-1.215zM20.451 10.344c-1.261-1.11-2.916-1.783-4.729-1.783-0.582 0-1.147 0.070-1.687 0.2 0.107 0.144 1.452 1.926 2.677 4.171 2.702-1.011 3.722-2.562 3.74-2.588zM16.988 16.864c-0.016 0.005-0.032 0.010-0.048 0.016-4.225 1.471-5.605 4.435-5.62 4.467 1.216 0.944 2.74 1.514 4.401 1.514 0.992 0 1.936-0.202 2.796-0.567-0.106-0.625-0.522-2.815-1.53-5.43zM19.723 21.641c1.608-1.083 2.75-2.804 3.068-4.797-0.147-0.047-2.151-0.681-4.462-0.311 0.939 2.577 1.321 4.677 1.394 5.107zM17.262 13.997c0.166 0.341 0.327 0.688 0.476 1.037 0.053 0.125 0.104 0.248 0.155 0.37 2.46-0.309 4.884 0.211 4.987 0.232-0.016-1.695-0.624-3.251-1.628-4.469-0.014 0.019-1.162 1.676-3.989 2.829z"></path>
        </symbol>
        <symbol id="icon-twitter" viewBox="0 0 32 32">
            <path d="M0 15.722c0-8.683 7.039-15.722 15.722-15.722s15.722 7.039 15.722 15.722c0 8.683-7.039 15.722-15.722 15.722s-15.722-7.039-15.722-15.722z"></path>
            <path d="M15.251 12.779l0.033 0.544-0.55-0.067c-2.002-0.255-3.75-1.121-5.235-2.576l-0.726-0.722-0.187 0.533c-0.396 1.188-0.143 2.443 0.682 3.286 0.44 0.466 0.341 0.533-0.418 0.255-0.264-0.089-0.495-0.155-0.517-0.122-0.077 0.078 0.187 1.088 0.396 1.488 0.286 0.555 0.869 1.099 1.507 1.421l0.539 0.255-0.638 0.011c-0.616 0-0.638 0.011-0.572 0.244 0.22 0.722 1.089 1.488 2.056 1.821l0.682 0.233-0.594 0.355c-0.88 0.511-1.914 0.799-2.947 0.822-0.495 0.011-0.902 0.056-0.902 0.089 0 0.111 1.342 0.733 2.122 0.977 2.342 0.722 5.125 0.411 7.214-0.822 1.485-0.877 2.969-2.62 3.662-4.308 0.374-0.899 0.748-2.542 0.748-3.331 0-0.511 0.033-0.577 0.649-1.188 0.363-0.355 0.704-0.744 0.77-0.855 0.11-0.211 0.099-0.211-0.462-0.022-0.935 0.333-1.067 0.289-0.605-0.211 0.341-0.355 0.748-0.999 0.748-1.188 0-0.033-0.165 0.022-0.352 0.122-0.198 0.111-0.638 0.278-0.968 0.377l-0.594 0.189-0.539-0.366c-0.297-0.2-0.715-0.422-0.935-0.489-0.561-0.155-1.419-0.133-1.924 0.044-1.375 0.5-2.243 1.787-2.144 3.197z"></path>
        </symbol>
        <symbol id="icon-youtube" viewBox="0 0 32 32">
            <path d="M0 15.722c0-8.683 7.039-15.722 15.722-15.722s15.722 7.039 15.722 15.722c0 8.683-7.039 15.722-15.722 15.722s-15.722-7.039-15.722-15.722z"></path>
            <path d="M22.274 10.317c0.722 0.198 1.29 0.781 1.483 1.522 0.35 1.343 0.35 4.145 0.35 4.145s0 2.802-0.35 4.145c-0.193 0.741-0.761 1.324-1.483 1.523-1.308 0.36-6.552 0.36-6.552 0.36s-5.244 0-6.552-0.36c-0.722-0.198-1.29-0.782-1.483-1.523-0.35-1.343-0.35-4.145-0.35-4.145s0-2.802 0.35-4.145c0.193-0.741 0.761-1.324 1.483-1.522 1.308-0.36 6.552-0.36 6.552-0.36s5.244 0 6.552 0.36zM14.15 13.626v5.241l4.192-2.62-4.192-2.621z"></path>
        </symbol>
    </defs>
</svg>